<?xml version="1.0" standalone="no"?>
<!DOCTYPE svg PUBLIC "-//W3C//DTD SVG 20010904//EN"
 "http://www.w3.org/TR/2001/REC-SVG-20010904/DTD/svg10.dtd">
<svg version="1.0" xmlns="http://www.w3.org/2000/svg"
 width="338.000000pt" height="338.000000pt" viewBox="0 0 338.000000 338.000000"
 preserveAspectRatio="xMidYMid meet">
<metadata>
Created by potrace 1.11, written by Peter Selinger 2001-2013
</metadata>
<g transform="translate(0.000000,338.000000) scale(0.100000,-0.100000)"
fill="#000000" stroke="none">
<path d="M1585 3262 c-359 -307 -642 -783 -759 -1282 -79 -334 -81 -715 -5
-1012 94 -372 327 -686 614 -830 164 -83 272 -97 397 -52 152 55 251 118 380
242 272 263 411 638 411 1117 1 325 -49 581 -174 898 -140 354 -398 718 -658
931 -92 75 -104 74 -206 -12z m250 -94 c199 -192 333 -367 454 -599 324 -619
371 -1321 123 -1841 -141 -293 -385 -514 -656 -593 -48 -14 -65 -15 -104 -5
-205 51 -420 208 -565 412 -438 616 -323 1679 261 2404 86 107 325 344 347
344 7 0 70 -55 140 -122z"/>
<path d="M1623 3155 c-48 -51 -66 -85 -44 -85 14 0 98 68 104 84 9 24 18 20
67 -29 25 -25 53 -50 63 -55 36 -22 17 26 -34 83 -67 75 -85 75 -156 2z"/>
<path d="M1545 2935 c-8 -59 -3 -85 55 -294 36 -135 21 -182 -25 -75 -41 96
-102 174 -162 207 -62 33 -74 34 -110 3 -26 -23 -28 -30 -28 -99 0 -68 4 -82
44 -161 72 -143 141 -206 225 -206 29 0 36 -4 45 -32 16 -46 25 -139 17 -182
-8 -42 -36 -62 -65 -47 -28 15 -102 123 -149 217 -42 83 -64 103 -88 83 -21
-17 -17 -40 17 -126 33 -85 57 -128 102 -186 16 -21 27 -40 25 -42 -2 -3 -18
1 -35 7 -37 14 -87 -3 -108 -36 -33 -54 -25 -155 20 -253 l25 -54 -28 -24
c-24 -21 -27 -31 -30 -102 -3 -57 1 -90 12 -117 9 -21 16 -42 16 -46 0 -4 -20
-1 -45 8 -41 13 -50 13 -90 -3 -67 -25 -85 -54 -85 -135 0 -57 5 -78 36 -140
71 -141 278 -306 402 -319 l57 -6 17 -50 c33 -96 19 -205 -31 -250 -28 -24
-124 -24 -176 1 -54 25 -166 150 -204 228 -42 85 -53 184 -27 234 l17 32 -30
0 c-100 0 -116 -183 -31 -349 38 -76 65 -109 133 -169 80 -69 135 -93 227 -99
65 -4 81 -1 120 19 26 13 56 39 70 62 22 33 26 36 35 21 47 -81 110 -111 213
-102 105 9 188 55 272 152 65 74 133 224 134 294 2 113 -27 171 -85 171 -30 0
-30 0 -14 -30 37 -72 5 -213 -76 -334 -50 -73 -68 -90 -136 -122 -73 -35 -163
-37 -197 -5 -14 13 -31 40 -37 59 -14 44 -7 155 14 204 15 36 19 38 60 38 72
0 243 103 327 198 77 87 113 162 118 252 4 65 1 79 -17 102 -12 14 -41 34 -66
43 -40 16 -49 16 -90 3 -25 -9 -45 -12 -45 -8 0 4 7 25 16 46 11 27 15 60 12
117 -3 72 -6 81 -31 103 l-28 24 25 49 c36 70 52 174 34 226 -18 55 -72 85
-119 68 -18 -7 -35 -11 -37 -8 -2 2 9 21 25 42 45 58 69 101 102 186 34 86 38
109 17 126 -24 20 -46 0 -88 -83 -51 -102 -124 -205 -155 -219 -19 -8 -27 -7
-40 6 -22 22 -28 125 -11 197 l13 55 45 6 c92 11 150 64 222 206 39 78 43 92
43 160 0 69 -2 76 -28 99 -36 31 -48 30 -110 -3 -60 -33 -121 -111 -162 -207
-56 -131 -60 -26 -6 148 36 115 46 185 34 240 l-8 39 -28 -40 c-15 -21 -47
-97 -72 -168 -25 -71 -47 -130 -49 -132 -2 -2 -15 31 -30 74 -53 151 -77 208
-100 237 l-24 29 -7 -58z m-132 -254 c40 -36 80 -107 113 -203 13 -39 24 -73
24 -75 0 -2 -12 -3 -26 -3 -35 0 -79 49 -132 148 -30 57 -42 91 -42 121 0 50
15 53 63 12z m647 -12 c0 -30 -12 -64 -42 -121 -53 -99 -97 -148 -132 -148
-14 0 -26 1 -26 3 0 2 11 36 24 75 33 96 73 167 113 203 48 41 63 38 63 -12z
m-326 -393 c-24 -91 -25 -219 -2 -261 9 -17 29 -37 45 -45 15 -8 30 -16 32
-17 2 -2 -20 -51 -50 -111 l-54 -108 -52 104 c-29 58 -53 107 -53 111 0 3 14
12 30 19 17 8 38 28 48 45 23 44 23 171 -2 263 l-19 70 24 52 23 51 25 -51 24
-51 -19 -71z m-293 -393 c39 -46 133 -238 125 -258 -14 -39 -83 -2 -130 69
-45 69 -66 125 -66 182 0 37 3 44 19 44 10 0 34 -17 52 -37z m599 -7 c0 -111
-102 -266 -175 -266 -31 0 -26 31 22 132 53 111 104 178 134 178 16 0 19 -7
19 -44z m-310 -305 c-1 -9 -7 -29 -14 -46 l-13 -30 -13 41 c-10 33 -10 46 0
64 12 23 13 23 26 5 8 -10 14 -26 14 -34z m-305 -28 c44 -62 132 -220 140
-255 9 -35 -5 -36 -61 -3 -66 39 -140 149 -144 215 -8 104 11 116 65 43z m626
20 c5 -86 -7 -122 -68 -206 -33 -44 -104 -97 -132 -97 -21 0 -5 46 50 145 92
166 147 224 150 158z m-432 -76 c18 -75 25 -157 12 -157 -6 0 -11 3 -11 8 0 4
-20 43 -45 86 -25 44 -45 83 -45 87 0 7 26 15 61 18 12 1 20 -12 28 -42z m260
27 c3 -2 -5 -21 -18 -42 -12 -20 -34 -61 -49 -89 -14 -29 -30 -53 -35 -53 -11
0 -2 90 15 158 11 43 11 44 47 37 20 -4 38 -9 40 -11z m-587 -229 c63 -43 181
-216 239 -352 38 -88 26 -90 -106 -15 -148 85 -245 211 -245 318 0 40 4 56 18
63 28 17 55 13 94 -14z m919 15 c15 -8 19 -22 19 -61 0 -125 -110 -256 -293
-348 -37 -19 -70 -31 -74 -27 -11 11 15 73 74 181 67 121 132 207 181 240 40
27 63 31 93 15z m-486 -100 c3 -10 0 -31 -8 -45 l-13 -26 -12 27 c-14 30 -7
64 13 64 8 0 16 -9 20 -20z m-155 -35 c44 -12 45 -13 57 -66 13 -64 16 -159 5
-177 -6 -8 -18 9 -38 50 -16 34 -48 95 -71 137 -24 41 -43 76 -43 78 0 3 10 1
23 -3 12 -4 42 -13 67 -19z m360 22 c0 -2 -19 -37 -42 -78 -24 -42 -56 -103
-72 -137 -20 -41 -32 -58 -38 -50 -11 18 -8 113 5 177 l12 54 54 14 c30 7 57
16 60 18 5 6 21 7 21 2z m-197 -368 c8 -12 6 -30 -8 -65 l-19 -49 -18 40 c-21
48 -22 67 -6 83 16 16 38 12 51 -9z"/>
<path d="M1104 2348 c-111 -220 -195 -599 -196 -888 -2 -214 37 -400 83 -400
25 0 24 15 -7 107 -23 67 -28 99 -31 233 -8 258 38 516 152 852 30 87 50 160
45 163 -5 3 -26 -27 -46 -67z"/>
<path d="M2238 2414 c-3 -3 18 -76 47 -162 114 -335 160 -594 152 -852 -3
-134 -8 -166 -31 -233 -31 -92 -32 -107 -7 -107 46 0 85 186 83 400 -1 289
-85 668 -196 888 -37 74 -39 76 -48 66z"/>
<path d="M1520 271 c0 -35 124 -96 195 -96 52 0 120 28 163 68 50 46 19 49
-72 6 -80 -37 -124 -36 -205 5 -55 27 -81 33 -81 17z"/>
</g>
</svg>
